<svg xmlns="http://www.w3.org/2000/svg" viewBox="0 0 128 128" width="48" height="48">
  <!-- 1. Fondo Blanco -->
  <rect x="0" y="0" width="128" height="128" fill="#FFFFFF"/>
  
  <!-- 2. Borde exterior de todo el icono (Marco verde oscuro) -->
  <rect x="2" y="2" width="124" height="124" fill="none" stroke="#1A330F" stroke-width="4"/>

  <!-- 3. Elementos internos con contorno verde oscuro reforzado -->
  <g stroke="#1A330F" stroke-width="3" stroke-linecap="round" stroke-linejoin="round">
    <!-- Frasco -->
    <path d="M51,124H17c-5.5,0-10-4.5-10-10V43c0-5.7,2.5-11.2,6.8-15L24,19h20l10.2,9c4.3,3.8,6.8,9.3,6.8,15v71 C61,119.5,56.5,124,51,124z" fill="#E4F3F1"/>
    <!-- Tapa -->
    <rect fill="#A5A4AA" height="15" width="20.8" x="24" y="4"/>
    <!-- Etiqueta -->
    <rect fill="#FFF7E7" x="9.5" y="49.5" width="22.4" height="49"/>
    <!-- Hoja -->
    <path d="M123.9,93.6c0.1-1.6,0.1-3.3-0.2-4.9c-1.4-7.5-7.2-13.6-15-14.6c-2.5-0.3-4.8-0.1-7,0.5 c-1.8,0.5-3.6,0.5-5.4,0c-2.2-0.6-4.6-0.9-7-0.5c-7.7,1-13.6,7.1-14.9,14.6C74,90.3,74,92,74.1,93.6l1.2,14 c0.6,6.4,4.3,12.2,10.1,15c3.7,1.8,7.2,1.9,10.8,0.8c1.8-0.5,3.6-0.5,5.4,0c3.6,1,7.1,1,10.8-0.8c5.8-2.8,9.5-8.6,10.1-15 L123.9,93.6z" fill="#A0C279"/>
  </g>
</svg>
