<?xml version="1.0" encoding="iso-8859-1"?>
<svg xmlns="http://www.w3.org/2000/svg" xmlns:xlink="http://www.w3.org/1999/xlink" version="1.1" id="Layer_1" x="0px" y="0px" viewBox="0 0 512 512" width="48" height="48" style="enable-background:new 0 0 512 512;" xml:space="preserve">
<polygon style="fill:#EFEFEF;" points="425.327,334.192 401.711,334.192 401.711,501.951 110.289,501.951 110.289,334.192   86.673,334.192 190.681,289.715 190.681,174.854 321.319,174.854 321.319,289.715 "/>
<rect x="230.877" y="215.05" style="fill:#69CBEF;" width="50.245" height="57.28"/>
<polygon style="fill:#EF584F;" points="173.095,174.854 256,83.407 338.905,174.854 "/>
<path style="fill:#75706B;" d="M256,351.215L256,351.215c-23.587,0-42.709,19.121-42.709,42.709v108.027h85.417V393.923  C298.709,370.336,279.587,351.215,256,351.215z"/>
<g>
	<path style="fill:#231F20;" d="M281.123,205.001h-50.245c-5.549,0-10.049,4.499-10.049,10.049v57.28   c0,5.55,4.5,10.049,10.049,10.049h50.245c5.549,0,10.049-4.499,10.049-10.049v-57.28   C291.172,209.5,286.672,205.001,281.123,205.001z M271.074,262.281h-30.147v-37.182h30.147V262.281z"/>
	<path style="fill:#231F20;" d="M452.291,491.902h-40.531V344.241h13.566c4.772,0,8.887-3.356,9.845-8.032   c0.958-4.676-1.505-9.38-5.894-11.257l-97.91-41.869v-98.179h7.537c3.975,0,7.577-2.343,9.188-5.977s0.928-7.876-1.743-10.822   L266.049,79.53V49.743h18.088c5.549,0,10.049-4.499,10.049-10.049s-4.5-10.049-10.049-10.049h-18.088V10.049   C266.049,4.499,261.549,0,256,0c-5.549,0-10.049,4.499-10.049,10.049v19.596h-18.088c-5.549,0-10.049,4.499-10.049,10.049   s4.5,10.049,10.049,10.049h18.088V79.53l-80.3,88.573c-2.67,2.945-3.353,7.187-1.743,10.822s5.212,5.977,9.188,5.977h7.537v98.18   l-97.91,41.869c-4.388,1.877-6.851,6.581-5.894,11.257c0.958,4.676,5.073,8.032,9.845,8.032h13.566v147.66H59.709   c-5.549,0-10.049,4.499-10.049,10.049S54.159,512,59.709,512h392.583c5.549,0,10.049-4.499,10.049-10.049   S457.841,491.902,452.291,491.902z M256,98.369l60.231,66.435H195.769L256,98.369z M288.659,491.902h-65.319v-97.978   c0-18.008,14.651-32.659,32.659-32.659c18.009,0,32.659,14.652,32.659,32.659V491.902z M308.758,491.902v-97.978   c0-29.091-23.668-52.758-52.758-52.758c-29.09,0-52.758,23.667-52.758,52.758v97.978h-82.905V330.726l74.295-31.771   c3.699-1.582,6.098-5.216,6.098-9.239V184.903h110.54v104.812c0,4.023,2.4,7.658,6.098,9.239l74.295,31.771v161.177H308.758z"/>
	<path style="fill:#231F20;" d="M348.954,368.131c-5.549,0-10.049,4.499-10.049,10.049v32.157c0,5.55,4.5,10.049,10.049,10.049   s10.049-4.499,10.049-10.049V378.18C359.003,372.63,354.503,368.131,348.954,368.131z"/>
	<path style="fill:#231F20;" d="M348.954,443.499c-5.549,0-10.049,4.499-10.049,10.049v4.02c0,5.55,4.5,10.049,10.049,10.049   s10.049-4.499,10.049-10.049v-4.02C359.003,447.999,354.503,443.499,348.954,443.499z"/>
	<path style="fill:#231F20;" d="M163.046,368.131c-5.549,0-10.049,4.499-10.049,10.049v32.157c0,5.55,4.5,10.049,10.049,10.049   c5.549,0,10.049-4.499,10.049-10.049V378.18C173.095,372.63,168.595,368.131,163.046,368.131z"/>
</g>
</svg>
